<svg width="25" height="25" viewBox="0 0 25 25" fill="none" xmlns="http://www.w3.org/2000/svg">
<g clip-path="url(#clip0_370726_103)">
<path d="M12.5 0.000244141C5.59815 0.000244141 0 5.5984 0 12.5002C0 19.4021 5.59815 25.0002 12.5 25.0002C19.4018 25.0002 25 19.4021 25 12.5002C25 5.5984 19.4018 0.000244141 12.5 0.000244141ZM18.8394 13.855C19.4274 14.4174 20.0409 14.9542 20.5521 15.5933C20.7822 15.8745 21.0122 16.1556 21.1656 16.488C21.3957 16.9481 21.1912 17.4593 20.7822 17.4849H18.226C17.5613 17.536 17.0501 17.2804 16.59 16.8203C16.2321 16.4624 15.8998 16.079 15.5675 15.6955C15.4397 15.5422 15.2863 15.3888 15.1073 15.2865C14.7495 15.0565 14.4427 15.1332 14.2638 15.491C14.0593 15.8745 14.0082 16.2835 13.9826 16.6925C13.957 17.306 13.7781 17.4593 13.1646 17.4849C11.8609 17.536 10.6339 17.3571 9.50919 16.6925C8.51226 16.1045 7.71983 15.3121 7.05521 14.3918C5.72597 12.6025 4.72903 10.6342 3.80879 8.61475C3.60429 8.15463 3.75767 7.92457 4.26891 7.89901C5.11247 7.87345 5.93046 7.87345 6.77402 7.89901C7.10633 7.89901 7.33639 8.10351 7.46421 8.41026C7.92433 9.50944 8.46114 10.5831 9.15132 11.5544C9.33026 11.81 9.53475 12.0657 9.79038 12.2702C10.0971 12.4747 10.3016 12.398 10.455 12.0657C10.5317 11.8612 10.5828 11.6311 10.6084 11.401C10.6851 10.6342 10.6851 9.86731 10.5572 9.10044C10.4806 8.58919 10.2249 8.28244 9.73925 8.18019C9.48363 8.12907 9.53476 8.05238 9.637 7.89901C9.8415 7.66895 10.046 7.51557 10.4294 7.51557H13.318C13.7781 7.61782 13.8804 7.79676 13.9315 8.25688V11.4777C13.9315 11.6567 14.0082 12.1935 14.3405 12.2957C14.5961 12.3724 14.775 12.1679 14.9284 12.0145C15.6186 11.2732 16.1043 10.4041 16.5644 9.50944C16.7689 9.10044 16.9223 8.69144 17.1012 8.28244C17.229 7.9757 17.408 7.82232 17.7658 7.82232H20.5521C20.6288 7.82232 20.7055 7.82232 20.8078 7.84788C21.2679 7.92457 21.3957 8.12907 21.2679 8.58919C21.0378 9.30494 20.6033 9.91843 20.1687 10.5064C19.7086 11.1454 19.1973 11.7589 18.7372 12.4235C18.2771 13.037 18.3026 13.3438 18.8394 13.855Z" fill="#999999"/>
</g>
<defs>
<clipPath id="clip0_370726_103">
<rect width="25" height="25" fill="white" transform="translate(0 0.000244141)"/>
</clipPath>
</defs>
</svg>
