<svg width="25" height="25" viewBox="0 0 25 25" fill="none" xmlns="http://www.w3.org/2000/svg">
<g clip-path="url(#clip0_370726_100)">
<path d="M17.1779 11.7847C16.3343 11.7847 15.6441 12.4493 15.6441 13.2928C15.6441 14.1364 16.3343 14.8266 17.1523 14.8266C17.9959 14.8266 18.6605 14.1364 18.6605 13.3184C18.6861 12.4493 18.0214 11.7847 17.1779 11.7847ZM17.1779 14.0597C16.7433 14.0597 16.411 13.7274 16.411 13.2928C16.411 12.8583 16.7433 12.526 17.1779 12.526C17.6124 12.526 17.9447 12.8838 17.9447 13.2928C17.9447 13.7274 17.5869 14.0597 17.1779 14.0597Z" fill="#999999"/>
<path d="M7.7965 9.58622C5.77707 9.56066 4.01327 11.2478 4.06439 13.395C4.08996 15.3889 5.75151 17.1016 7.84762 17.076C9.89261 17.0504 11.5542 15.3889 11.5542 13.3439C11.5542 11.2733 9.89261 9.58622 7.7965 9.58622ZM7.84762 15.6189C6.49282 15.6701 5.39364 14.5964 5.39364 13.2928C5.39364 11.9635 6.49282 10.941 7.71981 10.9666C8.99793 10.9666 10.046 11.9891 10.046 13.2928C10.0715 14.5964 9.04905 15.5678 7.84762 15.6189Z" fill="#999999"/>
<path d="M12.5 0.000244141C5.59815 0.000244141 0 5.5984 0 12.5002C0 19.4021 5.59815 25.0002 12.5 25.0002C19.4018 25.0002 25 19.4021 25 12.5002C25 5.5984 19.4018 0.000244141 12.5 0.000244141ZM19.683 17.3571C18.9161 17.8428 18.0726 18.0728 17.1779 18.0728C16.7945 18.0728 16.411 18.0217 16.0532 17.9194C15.1585 17.6894 14.3916 17.2293 13.7525 16.5646C13.6759 16.488 13.5992 16.3857 13.4969 16.2835C13.1646 16.7947 12.8323 17.2804 12.5 17.7916C12.1677 17.2804 11.8354 16.7947 11.5031 16.309C11.4775 16.309 11.4775 16.3346 11.4775 16.3346L11.4519 16.3601C10.6851 17.2804 9.71369 17.8172 8.53782 18.0217C7.8732 18.1239 7.23414 18.0984 6.59509 17.9194C5.7004 17.6638 4.93353 17.2037 4.29447 16.488C3.68098 15.7978 3.3231 15.0053 3.16973 14.0851C3.01636 13.2415 3.19529 12.4235 3.24642 12.219C3.39979 11.6311 3.62985 11.1199 3.98773 10.6342C4.01329 10.6086 4.01329 10.5319 4.01329 10.5064C3.88548 9.99512 3.62985 9.535 3.34867 9.07488C3.27198 8.97263 3.19529 8.87038 3.11861 8.74257V8.717C3.14417 8.717 3.14417 8.717 3.16973 8.717C4.11554 8.717 5.06134 8.717 6.00715 8.717C6.05828 8.717 6.08384 8.69144 6.13496 8.66588C6.79958 8.23132 7.51533 7.89901 8.25664 7.64339C8.79345 7.46445 9.33026 7.31108 9.89263 7.20883C10.4294 7.10658 10.9662 7.02989 11.5286 7.00433C12.8579 6.90208 13.9315 7.02989 14.6472 7.13214C15.184 7.20883 15.6953 7.33664 16.2065 7.49001C17.1012 7.7712 17.9192 8.15463 18.7116 8.64032C18.7628 8.66588 18.8394 8.69144 18.9161 8.69144C19.8364 8.69144 20.7566 8.69144 21.6769 8.69144C21.7536 8.69144 21.8302 8.69144 21.9069 8.69144C21.9069 8.717 21.9069 8.717 21.9069 8.717C21.8558 8.79369 21.8302 8.84482 21.7791 8.9215C21.4724 9.40719 21.1912 9.89287 21.0378 10.4552C21.0122 10.5064 21.0122 10.5575 21.0634 10.6342C21.8814 11.81 22.137 13.1137 21.8047 14.5197C21.4468 15.7211 20.7566 16.6669 19.683 17.3571Z" fill="#999999"/>
<path d="M7.71982 11.7847C6.90182 11.7847 6.21164 12.4749 6.21164 13.2928C6.21164 14.1364 6.90182 14.801 7.74538 14.801C8.56338 14.801 9.25356 14.1108 9.25356 13.2673C9.25356 12.4493 8.58894 11.7847 7.71982 11.7847ZM7.74538 14.0853C7.31082 14.0853 6.95295 13.753 6.95295 13.2928C6.95295 12.8583 7.28526 12.526 7.71982 12.526C8.15438 12.526 8.48669 12.8583 8.51225 13.2928C8.53781 13.7274 8.17994 14.0597 7.74538 14.0853Z" fill="#999999"/>
<path d="M17.1012 9.61176C15.0562 9.66289 13.4458 11.2989 13.4202 13.3439C13.4202 15.4144 15.1073 17.1271 17.1779 17.1015C19.2484 17.1015 20.9356 15.44 20.9356 13.3439C20.9356 11.1966 19.1718 9.56064 17.1012 9.61176ZM17.2801 15.6189C15.9253 15.67 14.8517 14.5964 14.8517 13.2927C14.8517 11.9635 15.9509 10.941 17.1779 10.9666C18.456 10.9666 19.5041 11.9891 19.5041 13.2927C19.5041 14.5709 18.4816 15.5678 17.2801 15.6189Z" fill="#999999"/>
<path d="M13.9826 9.86747C14.8006 9.1006 15.7975 8.71716 16.9223 8.61492C15.593 8.02698 14.1871 7.77136 12.73 7.74579C11.094 7.72023 9.48361 7.95029 7.97543 8.58935C9.12574 8.66604 10.1227 9.04948 10.9662 9.81635C11.8098 10.5832 12.2955 11.5546 12.4744 12.6793C12.6789 11.5801 13.1646 10.6343 13.9826 9.86747Z" fill="#999999"/>
</g>
<defs>
<clipPath id="clip0_370726_100">
<rect width="25" height="25" fill="white" transform="translate(0 0.000244141)"/>
</clipPath>
</defs>
</svg>
