<svg width="25" height="25" viewBox="0 0 25 25" fill="none" xmlns="http://www.w3.org/2000/svg">
<path d="M10.7106 8.32576C10.7106 9.35632 11.546 10.1918 12.5766 10.1918C13.6071 10.1918 14.4426 9.35632 14.4426 8.32576C14.4426 7.29521 13.6071 6.45974 12.5766 6.45974C11.546 6.45974 10.7106 7.29521 10.7106 8.32576Z" fill="#999999"/>
<path fill-rule="evenodd" clip-rule="evenodd" d="M12.5 25.0002C19.4036 25.0002 25 19.4038 25 12.5002C25 5.59669 19.4036 0.000244141 12.5 0.000244141C5.59644 0.000244141 0 5.59669 0 12.5002C0 19.4038 5.59644 25.0002 12.5 25.0002ZM8.06251 8.3257C8.06251 5.83267 10.0835 3.81161 12.5766 3.81161C15.0697 3.81161 17.0907 5.83267 17.0907 8.3257C17.0907 10.8188 15.0697 12.84 12.5766 12.84C10.0835 12.84 8.06251 10.8188 8.06251 8.3257ZM17.1176 15.1619C17.0604 15.2079 15.9774 16.0637 14.1702 16.4318L16.8981 19.1354C17.3778 19.6143 17.3784 20.3915 16.8994 20.8712C16.4205 21.3508 15.6435 21.3516 15.1636 20.8725L12.5153 18.2936L10.1099 20.8559C9.86912 21.1057 9.54789 21.2314 9.22631 21.2314C8.91959 21.2314 8.61261 21.1172 8.37443 20.8876C7.88644 20.417 7.8723 19.64 8.34283 19.1521L10.932 16.4461C9.07424 16.0866 7.94659 15.2085 7.88852 15.1619C7.3597 14.7378 7.27476 13.9654 7.69885 13.4365C8.12288 12.9077 8.8953 12.8227 9.42424 13.2467C9.4354 13.2558 10.6149 14.1418 12.5153 14.1431C14.4157 14.1418 15.5707 13.2558 15.5819 13.2467C16.1109 12.8227 16.8833 12.9077 17.3073 13.4365C17.7314 13.9654 17.6464 14.7378 17.1176 15.1619Z" fill="#999999"/>
</svg>
